<svg id="Calque_1" data-name="Calque 1" xmlns="http://www.w3.org/2000/svg" viewBox="0 0 36.12 47.9"><defs><style>.cls-1{fill:#fff;}</style></defs><path class="cls-1" d="M30,26.49a2.22,2.22,0,0,1-1.53,2.32A3.13,3.13,0,0,1,25,28.08a1.34,1.34,0,0,1-.3-.43.51.51,0,0,1,.09-.46c.09-.08.31,0,.47,0s.14.16.22.23a2.45,2.45,0,0,0,2.94.51,2,2,0,0,0,.8-2.37c-.56-2.12-1.29-4.2-2-6.29a8.22,8.22,0,0,0-.45-1,.26.26,0,0,1,.06-.32.25.25,0,0,1,.17-.08.19.19,0,0,1,.12,0,1.14,1.14,0,0,1,.46.37A26.08,26.08,0,0,1,30,26.49Z" transform="translate(-6.94 -1.05)"/><path class="cls-1" d="M40.85,18.16c-1-.19-1-.9-1.26-1.58a.76.76,0,0,1-.06-.2,1,1,0,0,0-.08-.14A3.11,3.11,0,0,0,39.9,16h0L40,16l0,0,.19-.14c2.48-1.95,2.51-4,.12-6a1.62,1.62,0,0,1-.56-1.12,3.74,3.74,0,0,0-2.47-3.77,2.18,2.18,0,0,1-.86-.58c-1.66-2.22-2.68-2.56-5.42-1.79a2.2,2.2,0,0,1-.92.05c-.86-.12-1.72-.28-2.58-.42-.34-.06-.76,0-1-.23-1.46-1.18-3-1-4.55-.34a2,2,0,0,1-1.2.16C18,1,16.18,1.63,14.53,4.06a2.22,2.22,0,0,1-1.12.84c-2.42.69-3.3,1.7-3.59,4.18a2.45,2.45,0,0,1-.63,1.17,6.62,6.62,0,0,0-1,7.32c.1.25.21.48.32.72-1.81,2.07-1.95,3.45-.8,6.05a8.25,8.25,0,0,0,4.12,4.19,1.88,1.88,0,0,1,.77.76c.72,1.34,1.43,2.7,2.09,4.09a2.53,2.53,0,0,1,.26,1.37c-.36,1.92-.81,3.83-1.23,5.76a2.44,2.44,0,0,0,.4,2.22,15.31,15.31,0,0,0,10.42,6c3.78.45,3.79.75,4.08-3.69.07-1.09,0-2.18,0-3.25.16-.06.21-.1.28-.1a6.26,6.26,0,0,1,.75,0A6.11,6.11,0,0,0,35.2,39a22.47,22.47,0,0,0,2.54-4.44c1.44-3.37,2.35-6.95,4.32-10.12a8.34,8.34,0,0,0,1-3.36A2.47,2.47,0,0,0,40.85,18.16Zm-13.26,29c0,.67-.34,1-1.09,1a14.86,14.86,0,0,1-11.75-5.9,1.41,1.41,0,0,1-.32-1c.38-2.07.83-4.11,1.28-6.33.82.65,1.47,1.21,2.15,1.7a33.49,33.49,0,0,0,8.88,4.46,1.28,1.28,0,0,1,1,1.48C27.68,44.06,27.65,45.6,27.59,47.13ZM39.78,26c-1.12,4.23-2.25,8.53-4.93,12.13-1.94,2.62-4.33,3.47-7.35,2.29a61,61,0,0,1-8.4-4,12.36,12.36,0,0,1-5.81-7.79c-.07-.28-.48-.56-.8-.69A7.7,7.7,0,0,1,7.88,22.5a3.24,3.24,0,0,1,2.81-4.22,2.51,2.51,0,0,1,2.68,1.16c.23.35.45.71.67,1.06l.6-.44c-.21-.4-.41-.81-.63-1.25a6.53,6.53,0,0,0,3.35-3.95,3.4,3.4,0,0,0,4-1.06c.11-.15.53-.12.78-.06a7.27,7.27,0,0,0,6.64-1.53,1.14,1.14,0,0,1,1.4-.11c1.23.51,2.55.79,3.82,1.22A1.85,1.85,0,0,1,35,14a4.31,4.31,0,0,0,3,2.39h0a2.63,2.63,0,0,0,.62,0s0,.08.06.11C39.53,19.65,40.62,22.84,39.78,26Zm1.13-1.08c-.21-2.14-.4-4-.6-5.92a1.7,1.7,0,0,1,1.94,1.75A7.83,7.83,0,0,1,40.91,24.93Z" transform="translate(-6.94 -1.05)"/><path class="cls-1" d="M19.42,22a2.17,2.17,0,0,1,2.27-2.2A2.22,2.22,0,0,1,23.92,22a2.25,2.25,0,0,1-2.29,2.21A2.21,2.21,0,0,1,19.42,22Z" transform="translate(-6.94 -1.05)"/><path class="cls-1" d="M24.41,34.57a2.45,2.45,0,0,1-1.07-1.39,1.76,1.76,0,0,1,.36-1.48c.22-.21,1.06-.07,1.39.2A4.91,4.91,0,0,0,28.26,33c.76,0,1.59,0,1.62,1.07a1.66,1.66,0,0,1-1.65,1.62h-.42A14.85,14.85,0,0,1,24.41,34.57Z" transform="translate(-6.94 -1.05)"/><path class="cls-1" d="M31.5,22a2.2,2.2,0,0,1,2.27-2.21A2.24,2.24,0,1,1,31.5,22Z" transform="translate(-6.94 -1.05)"/><path class="cls-1" d="M21.18,16.35a.68.68,0,0,1,.4,0,5.88,5.88,0,0,1,1.58.87c.48.45.32,1-.7,1a10.67,10.67,0,0,0-2.7.26c-.89.2-1.17-.1-.86-.71A2.86,2.86,0,0,1,21.18,16.35Z" transform="translate(-6.94 -1.05)"/><path class="cls-1" d="M33.67,16.35a.68.68,0,0,0-.4,0,5.88,5.88,0,0,0-1.58.87c-.48.45-.32,1,.7,1a10.67,10.67,0,0,1,2.7.26c.89.2,1.17-.1.86-.71A2.84,2.84,0,0,0,33.67,16.35Z" transform="translate(-6.94 -1.05)"/></svg>